<svg xmlns="http://www.w3.org/2000/svg" width="512" height="512"><path d="M245 23h23l13 1 15 2 14 3 12 3 18 6 7 3 7 3 16 8 3 2 5 3 5 3 4 3 5 3 2 2 3 2 4 3 2 2 3 2 3 3 3 2 19 19 2 3 3 3 2 3 2 2 2 3 3 4 3 4 3 5 3 4 2 4 2 3 3 5 8 16 2 5 4 10 5 15 3 11 3 15 2 14 1 12v27l-1 12-2 14-3 15-4 14-5 15-3 7-3 7-8 16-2 3-3 5-3 5-3 4-3 5-2 2-2 3-3 4-2 2-2 3-3 3-2 3-19 19-3 2-3 3-3 2-2 2-3 2-4 3-4 3-5 3-4 3-4 2-3 2-5 3-16 8-5 2-10 4-15 5-16 4-10 2-15 2-13 1h-23l-13-1-15-2-14-3-12-3-18-6-7-3-7-3-16-8-3-2-5-3-5-3-4-3-5-3-2-2-3-2-4-3-2-2-3-2-3-3-3-2L82 410l-2-3-3-3-2-3-2-2-2-3-3-4-3-4-3-5-3-4-2-4-2-3-3-5-8-16-2-5-4-10-5-15-4-18-3-17-1-9v-47l2-14 3-15 4-14 5-15 3-7 3-7 8-16 2-3 3-5 3-5 3-4 3-5 2-2 2-3 3-4 2-2 2-3 3-3 2-3 19-19 3-2 3-3 3-2 2-2 3-2 4-3 4-3 5-3 4-3 4-2 3-2 5-3 16-8 5-2 10-4 15-5 16-4 10-2 15-2Zm81 85l-8 1-5 1-10 3-7 3-6 3-3 2-3 2-4 3-4 3-10 10-2 3-2 2-3 5-3 5-4 8-3 9-2 9-1 6-1 12-3 4-3 5-2 2-1 3 38 1 3-1-1-5v-22l2-8 3-7 2-4 3-4 2-3 10-10 5-3 5-3 8-3 9-2h17l9 2 6 2 6 3 4 3 3 2 4 3 3 3 2 3 2 2 3 5 4 8 3 10 1 7v10l-1 7v4h29l1-6v-21l-1-7-3-11-2-5-2-5-2-3-2-4-3-4-2-3-3-4-12-12-3-2-4-3-5-3-8-4-11-4-9-2-8-1Zm1 44l-5 1-6 2-4 2-4 3-3 2-6 6-3 5-2 3-3 8-1 6v11l1 5 2 6h81l2-4 1-4v-17l-2-7-4-8-3-4-8-8-5-3-6-3-8-2Z" fill="#102c5d"/><path d="M245 23h23l13 1 15 2 14 3 12 3 18 6 7 3 7 3 16 8 3 2 5 3 5 3 4 3 5 3 2 2 3 2 4 3 2 2 3 2 3 3 3 2 19 19 2 3 3 3 2 3 2 2 2 3 3 4 3 4 3 5 3 4 2 4 2 3 3 5 8 16 2 5 4 10 5 15 3 11 3 15 2 14 1 12v14h-91v-2l4-4 2-3 3-4 2-4 2-3 2-4 4-11 1-3 2-12v-21l-1-7-3-11-2-5-2-5-2-3-2-4-3-4-2-3-3-4-11-11-3-2-4-3-5-3-8-4-11-4-9-2-8-1h-15l-8 1-5 1-10 3-7 3-6 3-3 2-3 2-4 3-4 3-9 9-2 3-2 2-3 5-3 5-4 8-3 9-2 9-1 6-1 12-3 4-3 5-2 2-2 3-3 4-3 4-3 5-3 4-2 3-3 4-3 5-3 4-3 4-3 5-3 4-3 4-3 5-2 2-3 5-2 3-18 2-10 3-5 2-4 2-3 2h-5l-12-5-12-5-5-2-12-5-5-2-12-5-5-2-12-5-5-2-12-5-5-2-12-5-5-2-7-3v-8l2-14 3-15 4-14 5-15 3-7 3-7 8-16 2-3 3-5 3-5 3-4 3-5 2-2 2-3 3-4 2-2 2-3 3-3 2-3 19-19 3-2 3-3 3-2 2-2 3-2 4-3 4-3 5-3 4-3 4-2 3-2 5-3 16-8 5-2 10-4 15-5 16-4 10-2 15-2Z" fill="#04102c"/><path d="M325 137h17l9 2 6 2 6 3 4 3 3 2 4 3 4 4 2 3 2 2 3 5 4 8 3 10 1 7v10l-1 7-1 4h29l-1 6-3 9-3 7-2 4-2 3-3 5-2 2-2 3-14 14-5 3-4 3-12 6-9 3-9 2-6 1-12 1-3 2-4 3-3 2-4 3-3 2-4 3-5 3-2 2-5 3-2 2-5 3-2 2-5 3-2 2-5 3-2 2-5 3-4 3-4 3-3 2-4 3-2 1-1 11-1 7-3 10-5 10-3 4-2 3-11 11-5 3-3 2-8 4-10 3-4 1h-21l-9-2-10-4-4-2-4-3-3-2-4-3-6-6-2-3-3-4-3-5-3-6-4-12-4-2-5-2-12-5-5-2-12-5-5-2-12-5-5-2-12-5-5-2-10-4-1-1-3-11-3-16-1-6-1-9v-39h2l5 2 12 5 5 2 12 5 5 2 12 5 5 2 12 5 5 2 12 5 5 2 12 5 5 2 12 5h5l5-3 4-2 9-3 4-1 8-1h10v-2l3-4 2-3 3-4 3-5 2-2 3-5 3-4 2-3 3-4 3-5 3-4 3-4 3-5 3-4 2-3 3-4h39l2-1-1-4v-22l2-8 3-7 2-4 3-4 2-3 11-11 5-3 5-3 8-3Zm2 15l-5 1-6 2-4 2-4 3-3 2-6 6-3 5-2 3-3 8-1 6v11l1 5 2 6h81l2-4 1-4v-17l-2-7-4-8-3-4-8-8-5-3-6-3-8-2Z" fill="#f7f7f7"/><path d="M245 23h23l13 1 15 2 14 3 12 3 18 6 7 3 7 3 16 8 3 2 5 3 5 3 4 3 5 3 2 2 3 2 4 3 2 2 3 2 3 3 3 2 19 19v2H82v-2l20-20 3-2 3-3 3-2 2-2 3-2 4-3 4-3 5-3 4-3 4-2 3-2 5-3 16-8 5-2 10-4 15-5 16-4 10-2 15-2Z" fill="#081023"/><path d="M84 411h345v1l-18 18-3 2-3 3-3 2-2 2-3 2-4 3-4 3-5 3-4 3-4 2-3 2-5 3-16 8-5 2-10 4-15 5-16 4-10 2-15 2-13 1h-23l-13-1-15-2-14-3-12-3-18-6-7-3-7-3-16-8-3-2-5-3-5-3-4-3-5-3-2-2-3-2-4-3-2-2-3-2-3-3-3-2L84 412Z" fill="#105a8c"/><path d="M33 319l4 1 7 3 12 5 5 2 12 5 5 2 12 5 5 2 12 5 5 2 7 3 3 2 4 12 4 8 3 4 2 3 3 4 5 5 3 2 4 3 5 3 4 2 8 3 9 2h21l11-3 5-2 8-4 4-3 3-2 10-10 3-5 2-3 4-8 3-10h215v2l-5 10-2 3-3 5-3 5-3 4-3 5-2 2-2 3-3 4-2 2-2 3-3 3-2 3H83l-3-4-3-3-2-3-2-2-2-3-3-4-3-4-3-5-3-4-2-4-2-3-3-5-8-16-2-5-4-10-5-15Z" fill="#103f71"/><path d="M245 188h1v10l-3 4-3 5-2 2-2 3-3 4-3 4-3 5-3 4-2 3-3 4-3 5-3 4-3 4-3 5-3 4-3 4-3 5-2 2-3 5-2 3-18 2-10 3-5 2-4 2-3 2h-5l-12-5-12-5-5-2-12-5-5-2-12-5-5-2-12-5-5-2-12-5-5-2-12-5-5-2-7-3v-8l2-14 3-15 3-11h212Z" fill="#081038"/><path d="M84 411h345v1l-18 18-3 2-3 3-2 1H110l-3-2-3-3-3-2L84 412Z" fill="#104d82"/><path d="M26 227h199v1l-3 4-3 4-3 5-3 4-3 4-3 5-3 4-3 4-3 5-2 2-3 5-2 3-18 2-10 3-5 2-4 2-3 2h-5l-12-5-12-5-5-2-12-5-5-2-12-5-5-2-12-5-5-2-12-5-5-2-12-5-5-2-7-3v-8Z" fill="#081740"/><path d="M409 150h55l5 10 2 5 4 10 5 15 3 11 3 15 2 14 1 12v14h-91v-2l4-4 2-3 3-4 2-4 2-3 2-4 4-11 1-3 2-12v-21l-1-7-3-11-2-5-2-5-2-3-1-2Z" fill="#091135"/><path d="M397 255l92 1v13l-1 12-2 14-2 10H304v-1l2-2 2-3 5-3 2-2 5-3 2-2 5-3 2-2 2-1 12-1 11-2 10-3 5-2 10-5 4-3 5-3Z" fill="#10204d"/><path d="M325 137h17l9 2 6 2 6 3 4 3 3 2 4 3 4 4 2 3 2 2 3 5 4 8 3 10 1 7v10l-1 7-3 9-5 10-3 4-3 4-5 5-3 2-2 2-5 3-6 3-5 2-9 2h-19l-5-1-9-3-6-3-4-3-3-2-3-3-3-2-3-4-2-2-3-5-2-3-2-4-2-6-1-2-1-4v-22l2-8 3-7 2-4 3-4 2-3 11-11 5-3 5-3 8-3Zm2 15l-5 1-6 2-4 2-4 3-3 2-6 6-3 5-2 3-3 8-1 6v11l1 5 2 6h81l2-4 1-4v-17l-2-7-4-8-3-4-8-8-5-3-6-3-8-2Z" fill="#0d183d"/><path d="M145 459h223v1l-16 8-5 2-10 4-15 5-16 4-10 2-15 2-13 1h-23l-13-1-15-2-14-3-12-3-18-6-7-3-7-3-14-7Z" fill="#11669b"/><path d="M178 293h16l5 1 6 2 8 4 4 3 10 10 3 5 3 6 3 10v16l-1 5-2 6-4 8-3 4-2 2-2 3-2 2-3 2-4 3-10 5-8 2h-18l-10-3-8-4-2-2-3-2-7-7-2-3-2-3-1-2v-2h2l4 2 13 5 4 2 11 4h16l4-1 10-5 7-7 3-5 2-5 1-3v-17l-1-4-4-8-2-2-2-3-2-2-5-3-3-2-13-5-4-2-13-5-1-1v-1l1-1Z" fill="#134071"/><path d="M33 319l4 1 7 3 12 5 5 2 12 5 5 2 12 5 5 2 12 5 5 2 7 3 3 2 4 12v4H55l-3-5-8-16-2-5-4-10-5-15Z" fill="#113465"/><path d="M71 256h134v1l-2 2-3 5-3 4-3 4-3 5-18 2-10 3-5 2-4 2-3 2h-5l-12-5-12-5-5-2-12-5-5-2-12-5-5-2-12-5Z" fill="#111c48"/><path d="M415 227h72l1 3 1 12v14h-91v-2l4-4 2-3 3-4 2-4 2-3 2-4Z" fill="#081840"/><path d="M325 137h17l9 2 6 2 6 3 4 3 2 1v2h-31v2l-11 1-5 1-6 2-4 2-4 3-3 2-5 5-3 5-2 3-3 8-1 6v11l1 5 2 7 2 4 3 4 2 3 1 1v2h-18l-2-2-3-6-2-6-1-2-1-4v-22l2-8 3-7 2-4 3-4 2-3 11-11 5-3 5-3 8-3Z" fill="#091435"/><path d="M293 212h81v2l-2 4-3 4-2 2-1 2-3 2-3 3-5 3-4 2-6 2-5 1h-14l-10-3-4-2-4-3-3-2-6-6-3-5-2-3Z" fill="#f6f7f7"/><path d="M126 370h1l3 6 3 4 2 3 3 4 3 3v2H68l-3-4-3-5-3-4-2-4-1-1v-2h70Z" fill="#103d70"/><path d="M178 293h16l5 1 6 2 8 4 4 3 10 10 3 5 3 6 1 3v5h-15l-5-10-2-2-2-3-2-2-5-3-3-2-13-5-4-2-13-5-1-1v-1l1-1Z" fill="#142a58"/><path d="M234 330h1l1 4v16l-1 5-2 6-4 8-2 3h-20v-2l6-6 3-5 2-5 1-3v-19h15Z" fill="#133666"/><path d="M122 277h59v1l-8 1-10 3-5 2-4 2-3 2h-5l-12-5-12-5Z" fill="#162654"/><path d="M245 23h23l13 1 15 2v1h-72v-2l8-1Z" fill="#141526"/></svg>